<svg xmlns="http://www.w3.org/2000/svg" viewBox="0 0 30 30"><defs><style>.cls-1{fill:none;}.cls-2{fill:#d0d2d3;}</style></defs><title>Asset 1</title><g id="Layer_2" data-name="Layer 2"><g id="Layer_1-2" data-name="Layer 1"><g id="Layer_2-2" data-name="Layer 2"><g id="cancel.svg"><path class="cls-1" d="M15,1.11A13.89,13.89,0,1,0,28.89,15,13.89,13.89,0,0,0,15,1.11ZM20.5,20.5a.56.56,0,0,1-.79,0h0l-4.77-4.77-4.85,4.85a.56.56,0,0,1-.78-.78l4.85-4.85L9.5,10.29a.56.56,0,1,1,.79-.79l4.66,4.66,4.58-4.57a.56.56,0,0,1,.79.79l-4.58,4.58,4.77,4.77A.56.56,0,0,1,20.5,20.5Z"/><path class="cls-2" d="M15,0A15,15,0,1,0,30,15,15,15,0,0,0,15,0Zm0,28.89A13.89,13.89,0,1,1,28.89,15,13.89,13.89,0,0,1,15,28.89Z"/><path class="cls-2" d="M15.73,14.94l4.57-4.58a.56.56,0,0,0-.78-.78l-4.58,4.58L10.29,9.5a.56.56,0,1,0-.79.79l4.66,4.66L9.31,19.8a.56.56,0,0,0,.79.79l4.85-4.85,4.77,4.77a.56.56,0,0,0,.79-.79Z"/></g></g></g></g></svg>