<svg xmlns="http://www.w3.org/2000/svg" viewBox="0 0 300 54.2"><defs><style>.cls-1{fill:#083ea7;}.cls-2{fill:#1fde91;}</style></defs><title>timeout_logo</title><g id="Layer_2" data-name="Layer 2"><g id="Layer_1-2" data-name="Layer 1"><path class="cls-1" d="M192.11,8.29V6.43h6.43V0h-14.7V6.43h6.43V8.29l.92,0Z"/><path class="cls-1" d="M192.11,8.29l-.92,0-.92,0a23,23,0,1,0,1.84,0Zm-.92,42.23a19.29,19.29,0,1,1,19.29-19.29A19.31,19.31,0,0,1,191.19,50.52Z"/><path class="cls-2" d="M191.19,11.94a19.29,19.29,0,1,0,19.29,19.29A19.31,19.31,0,0,0,191.19,11.94Zm-.31,20a.92.92,0,0,1-1.3-.08l-9-10.22A.92.92,0,1,1,182,20.41l9,10.22A.92.92,0,0,1,190.88,31.92Z"/><path class="cls-1" d="M182,20.41a.92.92,0,1,0-1.38,1.21l9,10.22A.92.92,0,0,0,191,30.63Z"/><path class="cls-1" d="M8.12,20.52H24.18v8.12H8.12v25.5H0V8.46H8.12Z"/><path class="cls-1" d="M44.49,13.89a5.56,5.56,0,1,1-5.56-5.56A5.57,5.57,0,0,1,44.49,13.89ZM42.68,54.2H34.56V31.14h8.12Z"/><path class="cls-1" d="M107.61,8.46h8.12V54.14h-8.12V15.83H96.48L84.42,31.14,72.55,15.83h-11V54.14H53.43V8.46h8.12v6.31H71.74L66.8,8.46h35.56l-5,6.31h10.25Z"/><path class="cls-1" d="M126.29,8.52h31.56v8.31H126.29Zm0,22.62h31.56v8.25H134.6v6.5h23.25v8.25H126.29v-23Z"/><path class="cls-1" d="M265.38,8.46V33.83a20.37,20.37,0,0,1-40.74,0V8.46Z"/><path class="cls-1" d="M283.94,20.58H300V28.7H283.94V54.2h-8.12V8.52h8.12Z"/><polygon class="cls-2" points="8.12 21.58 7.06 21.58 7.06 20.52 7.06 9.52 1.06 9.52 1.06 20.52 1.06 28.64 1.06 53.14 7.06 53.14 7.06 28.64 7.06 27.58 8.12 27.58 23.12 27.58 23.12 21.58 8.12 21.58"/><rect class="cls-2" x="127.35" y="9.58" width="29.43" height="6.19"/><polygon class="cls-2" points="127.35 53.14 156.78 53.14 156.78 46.95 134.6 46.95 133.53 46.95 133.53 45.89 133.53 39.39 133.53 38.33 134.6 38.33 156.78 38.33 156.78 32.2 127.35 32.2 127.35 33.26 127.35 39.39 127.35 45.89 127.35 53.14"/><polygon class="cls-2" points="283.94 21.64 282.88 21.64 282.88 20.58 282.88 9.58 276.88 9.58 276.88 20.58 276.88 28.7 276.88 53.2 282.88 53.2 282.88 28.7 282.88 27.64 283.94 27.64 298.94 27.64 298.94 21.64 283.94 21.64"/><polygon class="cls-2" points="84.42 29.39 100.17 9.52 68.99 9.52 73.05 14.77 73.11 14.77 73.11 14.83 84.42 29.39"/></g></g></svg>